# Blender v2.79 (sub 0) OBJ File: ''
# www.blender.org
mtllib rock4L.mtl
o Icosphere
v -0.016010 -2.446377 -0.000100
v 1.659051 -1.301687 0.485501
v -0.608117 -1.335911 0.788068
v -2.187715 -1.261206 -0.004156
v -0.934336 -2.073046 -1.080973
v 1.902037 -1.536939 -0.533184
v 0.385597 0.816893 0.676484
v -1.706351 1.236997 0.561835
v -1.813452 1.285729 -0.617183
v 0.492176 0.981242 -1.120610
v 2.807029 1.414359 0.008858
v 0.102627 2.520452 -0.049421
v -0.324720 -1.868245 0.353418
v 0.860946 -2.032505 0.234709
v 0.633817 -1.459452 0.782005
v 2.149362 -1.557020 -0.005300
v 0.935284 -2.682044 -0.270869
v -1.197330 -2.400107 0.006470
v -1.599073 -1.531109 0.453125
v -0.549191 -2.929300 -0.446752
v -2.048004 -2.065271 -0.550134
v 0.741615 -1.983499 -0.908913
v 2.808102 -0.096129 0.449580
v 2.846699 -0.263903 -0.360310
v -0.033525 -0.079162 0.828124
v 1.098014 -0.199886 0.734073
v -2.726918 -0.060128 0.330413
v -1.291776 -0.247088 0.838321
v -1.605278 -0.282997 -1.016135
v -3.235212 -0.175982 -0.396210
v 1.756908 -0.161636 -1.060184
v 0.039986 -0.179526 -1.184466
v 1.552552 1.239270 0.589718
v -0.503647 1.048567 0.715628
v -2.388834 1.496486 -0.010595
v -0.607172 1.150068 -1.077974
v 2.372435 1.553766 -0.814638
v 0.312411 1.913315 0.486189
v 1.729865 2.517553 -0.018789
v -0.975734 2.068553 0.284288
v -1.070634 2.472505 -0.346235
v 0.490021 2.428760 -0.590608
vn 0.0142 -0.5161 0.8564
vn 0.3606 -0.6299 0.6879
vn -0.0160 -0.5278 0.8492
vn -0.0219 -0.6657 0.7459
vn 0.0312 -0.6970 0.7164
vn 0.5004 -0.4550 0.7366
vn 0.0016 -0.0326 0.9995
vn -0.6664 -0.4622 0.5851
vn -0.4275 -0.1278 -0.8949
vn 0.3945 -0.2922 -0.8712
vn 0.1705 -0.1334 0.9763
vn 0.0132 -0.0379 0.9992
vn -0.6892 -0.4643 0.5562
vn -0.1017 -0.0021 -0.9948
vn 0.5039 -0.2622 -0.8230
vn 0.0111 0.1717 0.9851
vn -0.0617 0.3644 0.9292
vn -0.5391 0.4933 -0.6827
vn 0.0164 0.3438 -0.9389
vn 0.6954 0.6726 -0.2531
vn 0.0048 0.9865 -0.1637
vn 0.2521 0.7105 -0.6569
vn 0.0480 0.3435 -0.9379
vn 0.0017 0.9861 -0.1659
vn -0.1262 0.4460 -0.8861
vn -0.2918 0.3828 -0.8766
vn -0.1725 0.8174 0.5496
vn -0.4106 0.7385 0.5349
vn -0.3842 0.5779 0.7200
vn -0.0398 0.6533 0.7561
vn -0.1045 0.3460 0.9324
vn 0.0890 0.1761 0.9803
vn -0.0130 0.6590 0.7521
vn 0.1468 0.4085 0.9009
vn 0.3494 0.3628 0.8639
vn 0.8863 0.1194 -0.4475
vn 0.5343 -0.0711 -0.8423
vn 0.1320 0.0939 -0.9868
vn -0.0285 0.0660 -0.9974
vn -0.1036 0.0292 -0.9942
vn -0.3315 0.1910 -0.9239
vn -0.5666 0.4464 -0.6926
vn -0.8056 0.2884 0.5176
vn -0.5475 0.2908 0.7846
vn -0.1014 0.1548 0.9827
vn -0.0049 0.0972 0.9952
vn 0.0776 0.1310 0.9883
vn 0.0428 0.0863 0.9953
vn 0.1611 0.0480 0.9858
vn 0.3756 0.2598 0.8896
vn 0.0719 0.0268 -0.9971
vn 0.0729 -0.1228 -0.9897
vn 0.1073 -0.1092 -0.9882
vn -0.3382 0.1896 -0.9218
vn -0.3601 -0.1513 -0.9206
vn -0.6975 -0.4815 0.5307
vn -0.3225 0.0855 0.9427
vn -0.3495 -0.1915 0.9171
vn -0.2743 -0.2155 0.9372
vn 0.0952 0.1227 0.9879
vn 0.0836 0.0071 0.9965
vn 0.2870 -0.0694 0.9554
vn 0.9989 0.0138 0.0448
vn 0.8871 -0.4417 0.1338
vn 0.7670 -0.5177 -0.3791
vn 0.4397 -0.5362 -0.7205
vn 0.1941 -0.6317 -0.7505
vn 0.1142 -0.5576 -0.8222
vn -0.3295 -0.6532 -0.6817
vn -0.4957 -0.8290 0.2590
vn -0.6017 -0.5176 0.6083
vn -0.6524 -0.5626 0.5078
vn -0.0577 -0.4773 0.8768
vn -0.1182 -0.6650 0.7374
vn 0.6778 -0.6507 -0.3423
vn 0.3450 -0.5516 0.7594
vn 0.0747 -0.6072 0.7910
vn -0.0610 -0.6506 0.7570
vn -0.0245 -0.6955 0.7181
vn 0.3067 -0.5910 0.7461
usemtl None
s off
f 1//1 14//1 13//1
f 2//2 14//2 16//2
f 1//3 13//3 18//3
f 1//4 18//4 20//4
f 1//5 20//5 17//5
f 2//6 16//6 23//6
f 3//7 15//7 25//7
f 4//8 19//8 27//8
f 5//9 21//9 29//9
f 6//10 22//10 31//10
f 2//11 23//11 26//11
f 3//12 25//12 28//12
f 4//13 27//13 30//13
f 5//14 29//14 32//14
f 6//15 31//15 24//15
f 7//16 33//16 38//16
f 8//17 34//17 40//17
f 9//18 35//18 41//18
f 10//19 36//19 42//19
f 11//20 37//20 39//20
f 39//21 42//21 12//21
f 39//22 37//22 42//22
f 37//23 10//23 42//23
f 42//24 41//24 12//24
f 42//25 36//25 41//25
f 36//26 9//26 41//26
f 41//27 40//27 12//27
f 41//28 35//28 40//28
f 35//29 8//29 40//29
f 40//30 38//30 12//30
f 40//31 34//31 38//31
f 34//32 7//32 38//32
f 38//33 39//33 12//33
f 38//34 33//34 39//34
f 33//35 11//35 39//35
f 24//36 37//36 11//36
f 24//37 31//37 37//37
f 31//38 10//38 37//38
f 32//39 36//39 10//39
f 32//40 29//40 36//40
f 29//41 9//41 36//41
f 30//42 35//42 9//42
f 30//43 27//43 35//43
f 27//44 8//44 35//44
f 28//45 34//45 8//45
f 28//46 25//46 34//46
f 25//47 7//47 34//47
f 26//48 33//48 7//48
f 26//49 23//49 33//49
f 23//50 11//50 33//50
f 31//51 32//51 10//51
f 31//52 22//52 32//52
f 22//53 5//53 32//53
f 29//54 30//54 9//54
f 29//55 21//55 30//55
f 21//56 4//56 30//56
f 27//57 28//57 8//57
f 27//58 19//58 28//58
f 19//59 3//59 28//59
f 25//60 26//60 7//60
f 25//61 15//61 26//61
f 15//62 2//62 26//62
f 23//63 24//63 11//63
f 23//64 16//64 24//64
f 16//65 6//65 24//65
f 17//66 22//66 6//66
f 17//67 20//67 22//67
f 20//68 5//68 22//68
f 20//69 21//69 5//69
f 20//70 18//70 21//70
f 18//71 4//71 21//71
f 18//72 19//72 4//72
f 18//73 13//73 19//73
f 13//74 3//74 19//74
f 16//75 17//75 6//75
f 16//76 14//76 17//76
f 14//77 1//77 17//77
f 13//78 15//78 3//78
f 13//79 14//79 15//79
f 14//80 2//80 15//80
