# Blender v2.79 (sub 0) OBJ File: ''
# www.blender.org
mtllib rock5L.mtl
o Icosphere
v -0.016010 -2.446377 -0.000299
v 1.659051 -1.301687 1.460744
v -0.608117 -1.335911 2.371088
v -2.187715 -1.261206 -0.012503
v -0.934336 -2.073046 -3.252360
v 1.902037 -1.536939 -1.604210
v 0.385597 0.816893 2.035359
v -1.706351 1.236997 1.690412
v -1.813452 1.285729 -1.856938
v 0.492176 0.981242 -3.371617
v 2.807029 1.414359 0.026652
v 0.102627 2.520452 -0.148694
v -0.324720 -1.868245 1.063339
v 0.860946 -2.032505 0.706176
v 0.633817 -1.459452 2.352844
v 2.149362 -1.557020 -0.015946
v 0.935284 -2.682044 -0.814972
v -1.197330 -2.400107 0.019467
v -1.599073 -1.531109 1.363334
v -0.549191 -2.929300 -1.344157
v -2.048004 -2.065271 -1.655206
v 0.741615 -1.983499 -2.734678
v 2.808102 -0.096129 1.352666
v 2.846699 -0.263903 -1.084076
v -0.033525 -0.079162 2.491605
v 1.098014 -0.199886 2.208631
v -2.726918 -0.060128 0.994124
v -1.291776 -0.247088 2.522284
v -1.605278 -0.282997 -3.057281
v -3.235212 -0.175982 -1.192090
v 1.756908 -0.161636 -3.189812
v 0.039986 -0.179526 -3.563744
v 1.552552 1.239270 1.774305
v -0.503647 1.048567 2.153133
v -2.388834 1.496486 -0.031876
v -0.607172 1.150068 -3.243337
v 2.372435 1.553766 -2.451029
v 0.312411 1.913315 1.462813
v 1.729865 2.517553 -0.056530
v -0.975734 2.068553 0.855345
v -1.070634 2.472505 -1.041728
v 0.490021 2.428760 -1.776981
vn 0.0242 -0.8754 0.4828
vn 0.4739 -0.8277 0.3005
vn -0.0266 -0.8815 0.4714
vn -0.0309 -0.9367 0.3488
vn 0.0424 -0.9455 0.3230
vn 0.6957 -0.6326 0.3404
vn 0.0049 -0.0977 0.9952
vn -0.7991 -0.5542 0.2332
vn -0.7972 -0.2383 -0.5547
vn 0.6922 -0.5127 -0.5080
vn 0.4371 -0.3421 0.8318
vn 0.0393 -0.1132 0.9928
vn -0.8096 -0.5454 0.2171
vn -0.2939 -0.0060 -0.9558
vn 0.7993 -0.4158 -0.4338
vn 0.0300 0.4642 0.8852
vn -0.1282 0.7566 0.6412
vn -0.7046 0.6447 -0.2966
vn 0.0353 0.7400 -0.6717
vn 0.7161 0.6926 -0.0866
vn 0.0049 0.9985 -0.0551
vn 0.3212 0.9052 -0.2782
vn 0.1030 0.7366 -0.6685
vn 0.0017 0.9984 -0.0558
vn -0.2299 0.8122 -0.5362
vn -0.5186 0.6803 -0.5178
vn -0.2017 0.9559 0.2136
vn -0.4755 0.8553 0.2059
vn -0.5234 0.7873 0.3260
vn -0.0567 0.9318 0.3585
vn -0.2194 0.7267 0.6510
vn 0.2337 0.4623 0.8554
vn -0.0184 0.9348 0.3546
vn 0.2784 0.7746 0.5678
vn 0.6026 0.6257 0.4953
vn 0.9776 0.1317 -0.1641
vn 0.8797 -0.1171 -0.4609
vn 0.3608 0.2567 -0.8966
vn -0.0842 0.1945 -0.9773
vn -0.2980 0.0841 -0.9509
vn -0.6757 0.3893 -0.6260
vn -0.7483 0.5896 -0.3040
vn -0.9230 0.3304 0.1971
vn -0.8141 0.4324 0.3877
vn -0.2702 0.4122 0.8701
vn -0.0142 0.2820 0.9593
vn 0.2144 0.3617 0.9073
vn 0.1241 0.2506 0.9601
vn 0.4374 0.1304 0.8897
vn 0.6904 0.4775 0.5434
vn 0.2114 0.0789 -0.9742
vn 0.2033 -0.3425 -0.9173
vn 0.2961 -0.3014 -0.9064
vn -0.6844 0.3836 -0.6201
vn -0.7257 -0.3049 -0.6167
vn -0.8057 -0.5562 0.2037
vn -0.7046 0.1869 0.6846
vn -0.6966 -0.3816 0.6075
vn -0.5866 -0.4608 0.6660
vn 0.2621 0.3377 0.9040
vn 0.2446 0.0208 0.9694
vn 0.6619 -0.1601 0.7323
vn 0.9998 0.0138 0.0149
vn 0.8943 -0.4452 0.0448
vn 0.8213 -0.5543 -0.1349
vn 0.5993 -0.7309 -0.3264
vn 0.2748 -0.8943 -0.3531
vn 0.1809 -0.8832 -0.4328
vn -0.4302 -0.8529 -0.2959
vn -0.5112 -0.8549 0.0888
vn -0.7347 -0.6319 0.2468
vn -0.7432 -0.6409 0.1922
vn -0.1026 -0.8490 0.5183
vn -0.1646 -0.9255 0.3411
vn 0.7162 -0.6875 -0.1202
vn 0.4944 -0.7904 0.3617
vn 0.1122 -0.9119 0.3949
vn -0.0871 -0.9291 0.3593
vn -0.0332 -0.9453 0.3244
vn 0.4317 -0.8318 0.3490
usemtl None
s off
f 1//1 14//1 13//1
f 2//2 14//2 16//2
f 1//3 13//3 18//3
f 1//4 18//4 20//4
f 1//5 20//5 17//5
f 2//6 16//6 23//6
f 3//7 15//7 25//7
f 4//8 19//8 27//8
f 5//9 21//9 29//9
f 6//10 22//10 31//10
f 2//11 23//11 26//11
f 3//12 25//12 28//12
f 4//13 27//13 30//13
f 5//14 29//14 32//14
f 6//15 31//15 24//15
f 7//16 33//16 38//16
f 8//17 34//17 40//17
f 9//18 35//18 41//18
f 10//19 36//19 42//19
f 11//20 37//20 39//20
f 39//21 42//21 12//21
f 39//22 37//22 42//22
f 37//23 10//23 42//23
f 42//24 41//24 12//24
f 42//25 36//25 41//25
f 36//26 9//26 41//26
f 41//27 40//27 12//27
f 41//28 35//28 40//28
f 35//29 8//29 40//29
f 40//30 38//30 12//30
f 40//31 34//31 38//31
f 34//32 7//32 38//32
f 38//33 39//33 12//33
f 38//34 33//34 39//34
f 33//35 11//35 39//35
f 24//36 37//36 11//36
f 24//37 31//37 37//37
f 31//38 10//38 37//38
f 32//39 36//39 10//39
f 32//40 29//40 36//40
f 29//41 9//41 36//41
f 30//42 35//42 9//42
f 30//43 27//43 35//43
f 27//44 8//44 35//44
f 28//45 34//45 8//45
f 28//46 25//46 34//46
f 25//47 7//47 34//47
f 26//48 33//48 7//48
f 26//49 23//49 33//49
f 23//50 11//50 33//50
f 31//51 32//51 10//51
f 31//52 22//52 32//52
f 22//53 5//53 32//53
f 29//54 30//54 9//54
f 29//55 21//55 30//55
f 21//56 4//56 30//56
f 27//57 28//57 8//57
f 27//58 19//58 28//58
f 19//59 3//59 28//59
f 25//60 26//60 7//60
f 25//61 15//61 26//61
f 15//62 2//62 26//62
f 23//63 24//63 11//63
f 23//64 16//64 24//64
f 16//65 6//65 24//65
f 17//66 22//66 6//66
f 17//67 20//67 22//67
f 20//68 5//68 22//68
f 20//69 21//69 5//69
f 20//70 18//70 21//70
f 18//71 4//71 21//71
f 18//72 19//72 4//72
f 18//73 13//73 19//73
f 13//74 3//74 19//74
f 16//75 17//75 6//75
f 16//76 14//76 17//76
f 14//77 1//77 17//77
f 13//78 15//78 3//78
f 13//79 14//79 15//79
f 14//80 2//80 15//80
