# Blender v2.79 (sub 0) OBJ File: ''
# www.blender.org
mtllib rock3.mtl
o Icosphere
v 0.000000 -1.304938 0.000000
v 1.007592 -0.813155 0.798429
v -0.365296 -0.759169 1.233445
v -1.200102 -0.704981 -0.014000
v -0.358931 -0.761119 -1.232773
v 1.000646 -0.813589 -0.794901
v 0.364913 0.706018 1.402923
v -1.088233 0.825931 0.962466
v -0.954121 0.702653 -0.873991
v 0.233625 0.391303 -0.994472
v 0.938103 0.498465 0.070239
v -0.000003 1.554404 -0.000000
v -0.196453 -1.143219 0.564399
v 0.501676 -1.209224 0.368043
v 0.337203 -0.828143 1.140645
v 1.101734 -0.786848 -0.011666
v 0.500062 -1.209267 -0.368035
v -0.622821 -1.202480 0.008619
v -0.933165 -0.915233 0.724717
v -0.196453 -1.143219 -0.564399
v -0.927371 -0.916071 -0.727997
v 0.333532 -0.828859 -1.139471
v 1.564037 -0.047421 0.526858
v 1.388329 -0.082401 -0.502494
v 0.000000 -0.100578 1.735567
v 0.834396 -0.162086 1.451715
v -1.423435 -0.009400 0.483850
v -0.902523 -0.199621 1.549727
v -0.838172 -0.160935 -1.446885
v -1.510237 -0.069738 -0.549605
v 0.732953 -0.107507 -1.297824
v -0.001662 -0.090534 -1.632552
v 0.892231 0.763617 0.828930
v -0.367506 0.859653 1.443769
v -1.318427 0.873087 -0.004410
v -0.285282 0.536992 -1.030602
v 0.589744 0.431288 -0.541083
v 0.227594 1.298613 0.762178
v 0.678050 1.182294 0.016116
v -0.622279 1.381152 0.487006
v -0.589243 1.386266 -0.474186
v 0.156236 1.107756 -0.591183
vn -0.0149 -0.9626 0.2706
vn 0.5930 -0.8040 0.0428
vn -0.1553 -0.9627 0.2218
vn -0.1613 -0.9622 -0.2195
vn -0.0150 -0.9626 -0.2706
vn 0.8193 -0.5682 0.0768
vn 0.0425 -0.6206 0.7830
vn -0.8831 -0.4253 0.1981
vn -0.4390 -0.5918 -0.6761
vn 0.4255 -0.4124 -0.8055
vn 0.7553 -0.3531 0.5521
vn -0.1065 -0.5648 0.8183
vn -0.9246 -0.3678 0.0991
vn -0.1588 -0.4418 -0.8830
vn 0.7648 -0.1554 -0.6253
vn 0.4997 0.6867 0.5280
vn -0.3821 0.7648 0.5186
vn -0.6863 0.6036 -0.4058
vn 0.1983 0.4970 -0.8448
vn 0.8225 0.2733 -0.4987
vn 0.4338 0.7703 -0.4673
vn 0.6756 0.3864 -0.6279
vn 0.7010 0.4058 -0.5864
vn 0.2144 0.8057 -0.5521
vn 0.0831 0.5668 -0.8197
vn -0.0667 0.5300 -0.8454
vn -0.2713 0.9625 -0.0042
vn -0.5822 0.8129 -0.0157
vn -0.6638 0.7225 0.1933
vn -0.0121 0.9469 0.3214
vn -0.0753 0.8670 0.4926
vn 0.1913 0.7407 0.6440
vn 0.4729 0.8682 0.1502
vn 0.5942 0.7680 0.2390
vn 0.9344 0.3501 -0.0659
vn 0.5138 0.7704 -0.3774
vn 0.5015 0.7468 -0.4368
vn 0.4826 0.7541 -0.4456
vn 0.2486 0.7267 -0.6404
vn -0.2192 0.6220 -0.7517
vn -0.0604 0.5462 -0.8355
vn -0.8110 0.4077 -0.4197
vn -0.9847 0.1578 0.0735
vn -0.9410 0.2425 0.2359
vn -0.5322 0.3461 0.7727
vn -0.2190 0.2060 0.9537
vn 0.1216 0.3309 0.9358
vn 0.6576 0.3918 0.6435
vn 0.7093 0.3624 0.6046
vn 0.7203 0.6673 -0.1896
vn 0.3092 0.7006 -0.6431
vn 0.3740 -0.3916 -0.8407
vn 0.0612 -0.5350 -0.8427
vn -0.7510 0.2920 -0.5922
vn -0.7504 -0.4071 -0.5207
vn -0.8285 -0.5374 -0.1576
vn -0.8872 0.0976 0.4510
vn -0.8588 -0.3708 0.3535
vn -0.3623 -0.6974 0.6184
vn 0.3286 0.2292 0.9162
vn 0.2327 -0.5487 0.8030
vn 0.3723 -0.6062 0.7028
vn 0.7081 0.6912 -0.1444
vn 0.8814 -0.4527 -0.1351
vn 0.8951 -0.4343 -0.1007
vn 0.2629 -0.8416 -0.4718
vn 0.0420 -0.8925 -0.4492
vn -0.0187 -0.8699 -0.4928
vn -0.1687 -0.8728 -0.4580
vn -0.2306 -0.9353 -0.2683
vn -0.6521 -0.7578 -0.0250
vn -0.6531 -0.7570 0.0206
vn -0.2290 -0.9337 0.2753
vn -0.1704 -0.8725 0.4579
vn 0.5932 -0.8035 -0.0491
vn 0.5751 -0.8181 -0.0012
vn 0.1877 -0.9822 -0.0004
vn -0.0201 -0.8693 0.4939
vn 0.0419 -0.8925 0.4491
vn 0.2593 -0.8431 0.4711
usemtl None
s off
f 1//1 14//1 13//1
f 2//2 14//2 16//2
f 1//3 13//3 18//3
f 1//4 18//4 20//4
f 1//5 20//5 17//5
f 2//6 16//6 23//6
f 3//7 15//7 25//7
f 4//8 19//8 27//8
f 5//9 21//9 29//9
f 6//10 22//10 31//10
f 2//11 23//11 26//11
f 3//12 25//12 28//12
f 4//13 27//13 30//13
f 5//14 29//14 32//14
f 6//15 31//15 24//15
f 7//16 33//16 38//16
f 8//17 34//17 40//17
f 9//18 35//18 41//18
f 10//19 36//19 42//19
f 11//20 37//20 39//20
f 39//21 42//21 12//21
f 39//22 37//22 42//22
f 37//23 10//23 42//23
f 42//24 41//24 12//24
f 42//25 36//25 41//25
f 36//26 9//26 41//26
f 41//27 40//27 12//27
f 41//28 35//28 40//28
f 35//29 8//29 40//29
f 40//30 38//30 12//30
f 40//31 34//31 38//31
f 34//32 7//32 38//32
f 38//33 39//33 12//33
f 38//34 33//34 39//34
f 33//35 11//35 39//35
f 24//36 37//36 11//36
f 24//37 31//37 37//37
f 31//38 10//38 37//38
f 32//39 36//39 10//39
f 32//40 29//40 36//40
f 29//41 9//41 36//41
f 30//42 35//42 9//42
f 30//43 27//43 35//43
f 27//44 8//44 35//44
f 28//45 34//45 8//45
f 28//46 25//46 34//46
f 25//47 7//47 34//47
f 26//48 33//48 7//48
f 26//49 23//49 33//49
f 23//50 11//50 33//50
f 31//51 32//51 10//51
f 31//52 22//52 32//52
f 22//53 5//53 32//53
f 29//54 30//54 9//54
f 29//55 21//55 30//55
f 21//56 4//56 30//56
f 27//57 28//57 8//57
f 27//58 19//58 28//58
f 19//59 3//59 28//59
f 25//60 26//60 7//60
f 25//61 15//61 26//61
f 15//62 2//62 26//62
f 23//63 24//63 11//63
f 23//64 16//64 24//64
f 16//65 6//65 24//65
f 17//66 22//66 6//66
f 17//67 20//67 22//67
f 20//68 5//68 22//68
f 20//69 21//69 5//69
f 20//70 18//70 21//70
f 18//71 4//71 21//71
f 18//72 19//72 4//72
f 18//73 13//73 19//73
f 13//74 3//74 19//74
f 16//75 17//75 6//75
f 16//76 14//76 17//76
f 14//77 1//77 17//77
f 13//78 15//78 3//78
f 13//79 14//79 15//79
f 14//80 2//80 15//80
